<?xml version="1.0" encoding="UTF-8" standalone="no"?>
<!DOCTYPE svg PUBLIC "-//W3C//DTD SVG 1.1//EN" "http://www.w3.org/Graphics/SVG/1.1/DTD/svg11.dtd">
<svg width="100%" height="100%" viewBox="0 0 864 218" version="1.1" xmlns="http://www.w3.org/2000/svg" xmlns:xlink="http://www.w3.org/1999/xlink" xml:space="preserve" style="fill-rule:evenodd;clip-rule:evenodd;stroke-linejoin:round;stroke-miterlimit:1.41421;">
    <g transform="matrix(1,0,0,1,-1255.55,-684.335)">
        <g transform="matrix(1.25893,0,0,0.749403,314.108,388.912)">
            <g transform="matrix(0.870179,0,0,1.46182,94.0895,-159.934)">
                <rect x="822.147" y="379.08" width="21.234" height="4.477" style="fill:white;fill-rule:nonzero;"/>
            </g>
            <g transform="matrix(0.870179,0,0,1.46182,94.0895,-159.934)">
                <rect x="846.147" y="379.08" width="21.234" height="4.477" style="fill:white;fill-rule:nonzero;"/>
            </g>
            <g transform="matrix(0.870179,0,0,1.46182,94.0895,-159.934)">
                <rect x="870.147" y="379.08" width="21.234" height="4.477" style="fill:white;fill-rule:nonzero;"/>
            </g>
            <g transform="matrix(0.870179,0,0,1.46182,94.0895,-159.934)">
                <rect x="894.147" y="379.08" width="21.234" height="4.477" style="fill:white;fill-rule:nonzero;"/>
            </g>
            <g transform="matrix(0.870179,0,0,1.46182,94.0895,-159.934)">
                <rect x="918.147" y="379.08" width="21.234" height="4.477" style="fill:white;fill-rule:nonzero;"/>
            </g>
            <g transform="matrix(0.870179,0,0,1.46182,94.0895,-159.934)">
                <rect x="942.147" y="379.08" width="21.234" height="4.477" style="fill:white;fill-rule:nonzero;"/>
            </g>
            <g transform="matrix(0.870179,0,0,1.46182,94.0895,-159.934)">
                <rect x="1134.15" y="379.08" width="21.234" height="4.477" style="fill:white;fill-rule:nonzero;"/>
            </g>
            <g transform="matrix(0.870179,0,0,1.46182,94.0895,-159.934)">
                <rect x="1158.15" y="379.08" width="21.234" height="4.477" style="fill:white;fill-rule:nonzero;"/>
            </g>
            <g transform="matrix(0.870179,0,0,1.46182,94.0895,-159.934)">
                <rect x="1182.15" y="379.08" width="21.234" height="4.477" style="fill:white;fill-rule:nonzero;"/>
            </g>
            <g transform="matrix(0.870179,0,0,1.46182,94.0895,-159.934)">
                <rect x="1206.15" y="379.08" width="21.234" height="4.477" style="fill:white;fill-rule:nonzero;"/>
            </g>
            <g transform="matrix(0.870179,0,0,1.46182,94.0895,-159.934)">
                <rect x="1230.15" y="379.08" width="21.234" height="4.477" style="fill:white;fill-rule:nonzero;"/>
            </g>
            <g transform="matrix(0.870179,0,0,1.46182,94.0895,-159.934)">
                <rect x="1254.15" y="379.08" width="21.234" height="4.477" style="fill:white;fill-rule:nonzero;"/>
            </g>
            <g transform="matrix(0.870179,0,0,1.46182,94.0895,-159.934)">
                <rect x="1278.15" y="379.08" width="21.234" height="4.477" style="fill:white;fill-rule:nonzero;"/>
            </g>
            <g transform="matrix(0.870179,0,0,1.46182,94.0895,-159.934)">
                <rect x="1302.15" y="379.08" width="21.234" height="4.477" style="fill:white;fill-rule:nonzero;"/>
            </g>
            <g transform="matrix(0.870179,0,0,1.46182,94.0895,-159.934)">
                <rect x="1326.15" y="379.08" width="21.234" height="4.477" style="fill:white;fill-rule:nonzero;"/>
            </g>
            <g transform="matrix(0.870179,0,0,1.46182,94.0895,-159.934)">
                <rect x="1350.15" y="379.08" width="21.234" height="4.477" style="fill:white;fill-rule:nonzero;"/>
            </g>
            <g transform="matrix(0.870179,0,0,1.46182,94.0895,-159.934)">
                <rect x="1374.15" y="379.08" width="21.234" height="4.477" style="fill:white;fill-rule:nonzero;"/>
            </g>
            <g transform="matrix(0.870179,0,0,1.46182,94.0895,-159.934)">
                <rect x="1398.15" y="379.08" width="21.234" height="4.477" style="fill:white;fill-rule:nonzero;"/>
            </g>
            <g transform="matrix(0.870179,0,0,1.46182,94.0895,-159.934)">
                <rect x="1422.15" y="379.08" width="21.234" height="4.477" style="fill:white;fill-rule:nonzero;"/>
            </g>
            <g transform="matrix(0.870179,0,0,1.46182,94.0895,-159.934)">
                <rect x="1446.15" y="379.08" width="21.234" height="4.477" style="fill:white;fill-rule:nonzero;"/>
            </g>
            <g transform="matrix(0.870179,0,0,1.46182,94.0895,-159.934)">
                <rect x="1470.15" y="379.08" width="21.234" height="4.477" style="fill:white;fill-rule:nonzero;"/>
            </g>
            <g transform="matrix(0.870179,0,0,1.46182,94.0895,-159.934)">
                <rect x="1494.15" y="379.08" width="21.234" height="4.477" style="fill:white;fill-rule:nonzero;"/>
            </g>
            <g transform="matrix(0.870179,0,0,1.46182,94.0895,-159.934)">
                <rect x="1518.15" y="379.08" width="21.234" height="4.477" style="fill:white;fill-rule:nonzero;"/>
            </g>
            <g transform="matrix(0.870179,0,0,1.46182,94.0895,-159.934)">
                <path d="M803.491,428.955L799.249,426.939L814.131,394.689L818.327,396.846L803.491,428.955Z" style="fill:white;fill-rule:nonzero;"/>
            </g>
            <g transform="matrix(0.870179,0,0,1.46182,94.0895,-159.934)">
                <rect x="846.147" y="427.08" width="21.234" height="4.477" style="fill:white;fill-rule:nonzero;"/>
            </g>
            <g transform="matrix(0.870179,0,0,1.46182,94.0895,-159.934)">
                <rect x="870.147" y="427.08" width="21.234" height="4.477" style="fill:white;fill-rule:nonzero;"/>
            </g>
            <g transform="matrix(0.870179,0,0,1.46182,94.0895,-159.934)">
                <rect x="894.147" y="427.08" width="21.234" height="4.477" style="fill:white;fill-rule:nonzero;"/>
            </g>
            <g transform="matrix(0.870179,0,0,1.46182,94.0895,-159.934)">
                <path d="M923.491,428.955L919.249,426.939L934.131,394.689L938.327,396.846L923.491,428.955Z" style="fill:white;fill-rule:nonzero;"/>
            </g>
            <g transform="matrix(0.870179,0,0,1.46182,94.0895,-159.934)">
                <rect x="974.21" y="395.416" width="5.156" height="38.531" style="fill:white;fill-rule:nonzero;"/>
            </g>
            <g transform="matrix(0.870179,0,0,1.46182,94.0895,-159.934)">
                <path d="M1115.49,428.955L1111.25,426.939L1126.13,394.689L1130.33,396.846L1115.49,428.955Z" style="fill:white;fill-rule:nonzero;"/>
            </g>
            <g transform="matrix(0.870179,0,0,1.46182,94.0895,-159.934)">
                <path d="M1163.49,428.955L1159.25,426.939L1174.13,394.689L1178.33,396.846L1163.49,428.955Z" style="fill:white;fill-rule:nonzero;"/>
            </g>
            <g transform="matrix(0.870179,0,0,1.46182,94.0895,-159.934)">
                <rect x="1230.15" y="427.08" width="21.234" height="4.477" style="fill:white;fill-rule:nonzero;"/>
            </g>
            <g transform="matrix(0.870179,0,0,1.46182,94.0895,-159.934)">
                <path d="M1259.49,428.955L1255.25,426.939L1270.13,394.689L1274.33,396.846L1259.49,428.955Z" style="fill:white;fill-rule:nonzero;"/>
            </g>
            <g transform="matrix(0.870179,0,0,1.46182,94.0895,-159.934)">
                <rect x="1302.15" y="427.08" width="21.234" height="4.477" style="fill:white;fill-rule:nonzero;"/>
            </g>
            <g transform="matrix(0.870179,0,0,1.46182,94.0895,-159.934)">
                <rect x="1326.15" y="427.08" width="21.234" height="4.477" style="fill:white;fill-rule:nonzero;"/>
            </g>
            <g transform="matrix(0.870179,0,0,1.46182,94.0895,-159.934)">
                <rect x="1350.15" y="427.08" width="21.234" height="4.477" style="fill:white;fill-rule:nonzero;"/>
            </g>
            <g transform="matrix(0.870179,0,0,1.46182,94.0895,-159.934)">
                <path d="M1379.49,428.955L1375.25,426.939L1390.13,394.689L1394.33,396.846L1379.49,428.955Z" style="fill:white;fill-rule:nonzero;"/>
            </g>
            <g transform="matrix(0.870179,0,0,1.46182,94.0895,-159.934)">
                <rect x="1398.15" y="427.08" width="21.234" height="4.477" style="fill:white;fill-rule:nonzero;"/>
            </g>
            <g transform="matrix(0.870179,0,0,1.46182,94.0895,-159.934)">
                <rect x="1470.15" y="427.08" width="21.234" height="4.477" style="fill:white;fill-rule:nonzero;"/>
            </g>
            <g transform="matrix(0.870179,0,0,1.46182,94.0895,-159.934)">
                <rect x="1494.15" y="427.08" width="21.234" height="4.477" style="fill:white;fill-rule:nonzero;"/>
            </g>
            <g transform="matrix(0.870179,0,0,1.46182,94.0895,-159.934)">
                <path d="M1523.49,428.955L1519.25,426.939L1534.13,394.689L1538.33,396.846L1523.49,428.955Z" style="fill:white;fill-rule:nonzero;"/>
            </g>
            <g transform="matrix(0.870179,0,0,1.46182,94.0895,-159.934)">
                <path d="M814.178,476.955L799.202,444.705L803.397,442.502L818.374,474.939L814.178,476.955Z" style="fill:white;fill-rule:nonzero;"/>
            </g>
            <g transform="matrix(0.870179,0,0,1.46182,94.0895,-159.934)">
                <rect x="822.147" y="475.08" width="21.234" height="4.477" style="fill:white;fill-rule:nonzero;"/>
            </g>
            <g transform="matrix(0.870179,0,0,1.46182,94.0895,-159.934)">
                <rect x="846.147" y="475.08" width="21.234" height="4.477" style="fill:white;fill-rule:nonzero;"/>
            </g>
            <g transform="matrix(0.870179,0,0,1.46182,94.0895,-159.934)">
                <path d="M910.178,476.955L895.202,444.705L899.397,442.502L914.374,474.939L910.178,476.955Z" style="fill:white;fill-rule:nonzero;"/>
            </g>
            <g transform="matrix(0.870179,0,0,1.46182,94.0895,-159.934)">
                <rect x="926.21" y="443.416" width="5.156" height="38.531" style="fill:white;fill-rule:nonzero;"/>
            </g>
            <g transform="matrix(0.870179,0,0,1.46182,94.0895,-159.934)">
                <rect x="974.21" y="443.416" width="5.156" height="38.531" style="fill:white;fill-rule:nonzero;"/>
            </g>
            <g transform="matrix(0.870179,0,0,1.46182,94.0895,-159.934)">
                <path d="M1019.49,476.955L1015.25,474.939L1030.13,442.689L1034.33,444.846L1019.49,476.955Z" style="fill:white;fill-rule:nonzero;"/>
            </g>
            <g transform="matrix(0.870179,0,0,1.46182,94.0895,-159.934)">
                <rect x="1046.21" y="443.416" width="5.156" height="38.531" style="fill:white;fill-rule:nonzero;"/>
            </g>
            <g transform="matrix(0.870179,0,0,1.46182,94.0895,-159.934)">
                <path d="M1091.49,476.955L1087.25,474.939L1102.13,442.689L1106.33,444.846L1091.49,476.955Z" style="fill:white;fill-rule:nonzero;"/>
            </g>
            <g transform="matrix(0.870179,0,0,1.46182,94.0895,-159.934)">
                <path d="M1139.49,476.955L1135.25,474.939L1150.13,442.689L1154.33,444.846L1139.49,476.955Z" style="fill:white;fill-rule:nonzero;"/>
            </g>
            <g transform="matrix(0.870179,0,0,1.46182,94.0895,-159.934)">
                <path d="M1163.49,476.955L1159.25,474.939L1174.13,442.689L1178.33,444.846L1163.49,476.955Z" style="fill:white;fill-rule:nonzero;"/>
            </g>
            <g transform="matrix(0.870179,0,0,1.46182,94.0895,-159.934)">
                <path d="M1211.49,476.955L1207.25,474.939L1222.13,442.689L1226.33,444.846L1211.49,476.955Z" style="fill:white;fill-rule:nonzero;"/>
            </g>
            <g transform="matrix(0.870179,0,0,1.46182,94.0895,-159.934)">
                <path d="M1235.49,476.955L1231.25,474.939L1246.13,442.689L1250.33,444.846L1235.49,476.955Z" style="fill:white;fill-rule:nonzero;"/>
            </g>
            <g transform="matrix(0.870179,0,0,1.46182,94.0895,-159.934)">
                <path d="M1283.49,476.955L1279.25,474.939L1294.13,442.689L1298.33,444.846L1283.49,476.955Z" style="fill:white;fill-rule:nonzero;"/>
            </g>
            <g transform="matrix(0.870179,0,0,1.46182,94.0895,-159.934)">
                <rect x="1302.15" y="475.08" width="21.234" height="4.477" style="fill:white;fill-rule:nonzero;"/>
            </g>
            <g transform="matrix(0.870179,0,0,1.46182,94.0895,-159.934)">
                <path d="M1403.49,476.955L1399.25,474.939L1414.13,442.689L1418.33,444.846L1403.49,476.955Z" style="fill:white;fill-rule:nonzero;"/>
            </g>
            <g transform="matrix(0.870179,0,0,1.46182,94.0895,-159.934)">
                <path d="M1451.49,476.955L1447.25,474.939L1462.13,442.689L1466.33,444.846L1451.49,476.955Z" style="fill:white;fill-rule:nonzero;"/>
            </g>
            <g transform="matrix(0.870179,0,0,1.46182,94.0895,-159.934)">
                <rect x="774.147" y="523.08" width="21.234" height="4.477" style="fill:white;fill-rule:nonzero;"/>
            </g>
            <g transform="matrix(0.870179,0,0,1.46182,94.0895,-159.934)">
                <rect x="798.147" y="523.08" width="21.234" height="4.477" style="fill:white;fill-rule:nonzero;"/>
            </g>
            <g transform="matrix(0.870179,0,0,1.46182,94.0895,-159.934)">
                <rect x="822.147" y="523.08" width="21.234" height="4.477" style="fill:white;fill-rule:nonzero;"/>
            </g>
            <g transform="matrix(0.870179,0,0,1.46182,94.0895,-159.934)">
                <path d="M851.491,524.955L847.249,522.939L862.131,490.689L866.327,492.846L851.491,524.955Z" style="fill:white;fill-rule:nonzero;"/>
            </g>
            <g transform="matrix(0.870179,0,0,1.46182,94.0895,-159.934)">
                <path d="M899.491,524.955L895.249,522.939L910.131,490.689L914.327,492.846L899.491,524.955Z" style="fill:white;fill-rule:nonzero;"/>
            </g>
            <g transform="matrix(0.870179,0,0,1.46182,94.0895,-159.934)">
                <rect x="926.21" y="491.416" width="5.156" height="38.531" style="fill:white;fill-rule:nonzero;"/>
            </g>
            <g transform="matrix(0.870179,0,0,1.46182,94.0895,-159.934)">
                <rect x="974.21" y="491.416" width="5.156" height="38.531" style="fill:white;fill-rule:nonzero;"/>
            </g>
            <g transform="matrix(0.870179,0,0,1.46182,94.0895,-159.934)">
                <path d="M995.491,524.955L991.249,522.939L1006.13,490.689L1010.33,492.846L995.491,524.955Z" style="fill:white;fill-rule:nonzero;"/>
            </g>
            <g transform="matrix(0.870179,0,0,1.46182,94.0895,-159.934)">
                <rect x="1046.21" y="491.416" width="5.156" height="38.531" style="fill:white;fill-rule:nonzero;"/>
            </g>
            <g transform="matrix(0.870179,0,0,1.46182,94.0895,-159.934)">
                <path d="M1067.49,524.955L1063.25,522.939L1078.13,490.689L1082.33,492.846L1067.49,524.955Z" style="fill:white;fill-rule:nonzero;"/>
            </g>
            <g transform="matrix(0.870179,0,0,1.46182,94.0895,-159.934)">
                <path d="M1115.49,524.955L1111.25,522.939L1126.13,490.689L1130.33,492.846L1115.49,524.955Z" style="fill:white;fill-rule:nonzero;"/>
            </g>
            <g transform="matrix(0.870179,0,0,1.46182,94.0895,-159.934)">
                <path d="M1139.49,524.955L1135.25,522.939L1150.13,490.689L1154.33,492.846L1139.49,524.955Z" style="fill:white;fill-rule:nonzero;"/>
            </g>
            <g transform="matrix(0.870179,0,0,1.46182,94.0895,-159.934)">
                <path d="M1187.49,524.955L1183.25,522.939L1198.13,490.689L1202.33,492.846L1187.49,524.955Z" style="fill:white;fill-rule:nonzero;"/>
            </g>
            <g transform="matrix(0.870179,0,0,1.46182,94.0895,-159.934)">
                <path d="M1211.49,524.955L1207.25,522.939L1222.13,490.689L1226.33,492.846L1211.49,524.955Z" style="fill:white;fill-rule:nonzero;"/>
            </g>
            <g transform="matrix(0.870179,0,0,1.46182,94.0895,-159.934)">
                <rect x="1254.15" y="523.08" width="21.234" height="4.477" style="fill:white;fill-rule:nonzero;"/>
            </g>
            <g transform="matrix(0.870179,0,0,1.46182,94.0895,-159.934)">
                <rect x="1278.15" y="523.08" width="21.234" height="4.477" style="fill:white;fill-rule:nonzero;"/>
            </g>
            <g transform="matrix(0.870179,0,0,1.46182,94.0895,-159.934)">
                <path d="M1307.49,524.955L1303.25,522.939L1318.13,490.689L1322.33,492.846L1307.49,524.955Z" style="fill:white;fill-rule:nonzero;"/>
            </g>
            <g transform="matrix(0.870179,0,0,1.46182,94.0895,-159.934)">
                <path d="M1379.49,524.955L1375.25,522.939L1390.13,490.689L1394.33,492.846L1379.49,524.955Z" style="fill:white;fill-rule:nonzero;"/>
            </g>
            <g transform="matrix(0.870179,0,0,1.46182,94.0895,-159.934)">
                <path d="M1427.49,524.955L1423.25,522.939L1438.13,490.689L1442.33,492.846L1427.49,524.955Z" style="fill:white;fill-rule:nonzero;"/>
            </g>
            <g transform="matrix(0.870179,0,0,1.46182,94.0895,-159.934)">
                <path d="M755.491,572.955L751.249,570.939L766.131,538.689L770.327,540.846L755.491,572.955Z" style="fill:white;fill-rule:nonzero;"/>
            </g>
            <g transform="matrix(0.870179,0,0,1.46182,94.0895,-159.934)">
                <rect x="774.147" y="571.08" width="21.234" height="4.477" style="fill:white;fill-rule:nonzero;"/>
            </g>
            <g transform="matrix(0.870179,0,0,1.46182,94.0895,-159.934)">
                <rect x="798.147" y="571.08" width="21.234" height="4.477" style="fill:white;fill-rule:nonzero;"/>
            </g>
            <g transform="matrix(0.870179,0,0,1.46182,94.0895,-159.934)">
                <rect x="822.147" y="571.08" width="21.234" height="4.477" style="fill:white;fill-rule:nonzero;"/>
            </g>
            <g transform="matrix(0.870179,0,0,1.46182,94.0895,-159.934)">
                <rect x="846.147" y="571.08" width="21.234" height="4.477" style="fill:white;fill-rule:nonzero;"/>
            </g>
            <g transform="matrix(0.870179,0,0,1.46182,94.0895,-159.934)">
                <path d="M875.491,572.955L871.249,570.939L886.131,538.689L890.327,540.846L875.491,572.955Z" style="fill:white;fill-rule:nonzero;"/>
            </g>
            <g transform="matrix(0.870179,0,0,1.46182,94.0895,-159.934)">
                <rect x="926.21" y="539.416" width="5.156" height="38.531" style="fill:white;fill-rule:nonzero;"/>
            </g>
            <g transform="matrix(0.870179,0,0,1.46182,94.0895,-159.934)">
                <rect x="942.147" y="571.08" width="21.234" height="4.477" style="fill:white;fill-rule:nonzero;"/>
            </g>
            <g transform="matrix(0.870179,0,0,1.46182,94.0895,-159.934)">
                <rect x="966.147" y="571.08" width="21.234" height="4.477" style="fill:white;fill-rule:nonzero;"/>
            </g>
            <g transform="matrix(0.870179,0,0,1.46182,94.0895,-159.934)">
                <path d="M995.491,572.955L991.249,570.939L1006.13,538.689L1010.33,540.846L995.491,572.955Z" style="fill:white;fill-rule:nonzero;"/>
            </g>
            <g transform="matrix(0.870179,0,0,1.46182,94.0895,-159.934)">
                <rect x="1022.21" y="539.416" width="5.156" height="38.531" style="fill:white;fill-rule:nonzero;"/>
            </g>
            <g transform="matrix(0.870179,0,0,1.46182,94.0895,-159.934)">
                <rect x="1038.15" y="571.08" width="21.234" height="4.477" style="fill:white;fill-rule:nonzero;"/>
            </g>
            <g transform="matrix(0.870179,0,0,1.46182,94.0895,-159.934)">
                <rect x="1062.15" y="571.08" width="21.234" height="4.477" style="fill:white;fill-rule:nonzero;"/>
            </g>
            <g transform="matrix(0.870179,0,0,1.46182,94.0895,-159.934)">
                <path d="M1091.49,572.955L1087.25,570.939L1102.13,538.689L1106.33,540.846L1091.49,572.955Z" style="fill:white;fill-rule:nonzero;"/>
            </g>
            <g transform="matrix(0.870179,0,0,1.46182,94.0895,-159.934)">
                <rect x="1110.15" y="571.08" width="21.234" height="4.477" style="fill:white;fill-rule:nonzero;"/>
            </g>
            <g transform="matrix(0.870179,0,0,1.46182,94.0895,-159.934)">
                <rect x="1134.15" y="571.08" width="21.234" height="4.477" style="fill:white;fill-rule:nonzero;"/>
            </g>
            <g transform="matrix(0.870179,0,0,1.46182,94.0895,-159.934)">
                <rect x="1158.15" y="571.08" width="21.234" height="4.477" style="fill:white;fill-rule:nonzero;"/>
            </g>
            <g transform="matrix(0.870179,0,0,1.46182,94.0895,-159.934)">
                <path d="M1187.49,572.955L1183.25,570.939L1198.13,538.689L1202.33,540.846L1187.49,572.955Z" style="fill:white;fill-rule:nonzero;"/>
            </g>
            <g transform="matrix(0.870179,0,0,1.46182,94.0895,-159.934)">
                <rect x="1206.15" y="571.08" width="21.234" height="4.477" style="fill:white;fill-rule:nonzero;"/>
            </g>
            <g transform="matrix(0.870179,0,0,1.46182,94.0895,-159.934)">
                <path d="M1235.49,572.955L1231.25,570.939L1246.13,538.689L1250.33,540.846L1235.49,572.955Z" style="fill:white;fill-rule:nonzero;"/>
            </g>
            <g transform="matrix(0.870179,0,0,1.46182,94.0895,-159.934)">
                <path d="M1355.49,572.955L1351.25,570.939L1366.13,538.689L1370.33,540.846L1355.49,572.955Z" style="fill:white;fill-rule:nonzero;"/>
            </g>
            <g transform="matrix(0.870179,0,0,1.46182,94.0895,-159.934)">
                <rect x="1374.15" y="571.08" width="21.234" height="4.477" style="fill:white;fill-rule:nonzero;"/>
            </g>
            <g transform="matrix(0.870179,0,0,1.46182,94.0895,-159.934)">
                <path d="M1403.49,572.955L1399.25,570.939L1414.13,538.689L1418.33,540.846L1403.49,572.955Z" style="fill:white;fill-rule:nonzero;"/>
            </g>
        </g>
    </g>
</svg>
